<?xml version="1.0" standalone="no"?><!DOCTYPE svg PUBLIC "-//W3C//DTD SVG 1.1//EN" "http://www.w3.org/Graphics/SVG/1.1/DTD/svg11.dtd"><svg t="1711679683903" class="icon" viewBox="0 0 1024 1024" version="1.1" xmlns="http://www.w3.org/2000/svg" p-id="3137" width="256" height="256" xmlns:xlink="http://www.w3.org/1999/xlink"><path d="M886.7 247.6L713.4 73.4c-6-6-14.2-9.4-22.7-9.4H192c-35.3 0-64 28.7-64 64v768c0 35.3 28.7 64 64 64h640c35.3 0 64-28.7 64-64V270.2c0-8.5-3.3-16.6-9.3-22.6zM832 864c0 17.7-14.3 32-32 32H224c-17.7 0-32-14.3-32-32V160c0-17.7 14.3-32 32-32h384v160c0 35.3 28.7 64 64 64h160v512zM704 288c-17.7 0-32-14.3-32-32V128l160 160H704z" p-id="3138" fill="#ffffff"></path><path d="M671 672H287c-17.7 0-32 14.3-32 32s14.3 32 32 32h384c17.7 0 32-14.3 32-32s-14.3-32-32-32zM287 480c-17.7 0-32 14.3-32 32s14.3 32 32 32h384c17.7 0 32-14.3 32-32s-14.3-32-32-32H287zM287 352h192c17.7 0 32-14.3 32-32s-14.3-32-32-32H287c-17.7 0-32 14.3-32 32s14.3 32 32 32z" p-id="3139" fill="#ffffff"></path></svg>